<?xml version="1.0" standalone="no"?>
<!DOCTYPE svg PUBLIC "-//W3C//DTD SVG 1.1//EN" "http://www.w3.org/Graphics/SVG/1.1/DTD/svg11.dtd">
<svg xmlns="http://www.w3.org/2000/svg" viewBox="0 0 256.0 256.0">
<rect fill="#FFFFFF" width="256.0" height="256.0"/>
<path stroke="none" fill="#000000" d="M1.02778 1.02779C-2.76835 4.82391 0 21.7396 0 27L0 104L0 217C0 224.185 -3.99807 249.946 1.02778 254.972C7.78226 261.727 46.1007 256 56 256L205 256C214.102 256 248.726 261.219 254.972 254.972C258.768 251.176 256 234.26 256 229L256 152L256 39C256 31.8149 259.998 6.05365 254.972 1.02779C248.726 -5.21884 214.102 0 205 0L56 0C46.1007 0 7.78227 -5.72672 1.02778 1.02779z"/>
<path stroke="none" fill="#233621" d="M65 15L64 15L64 16L65 16L68 16C70.982 14.0426 113.525 12 133 12C137.97 12 156.912 14.8416 160.278 11.2778C167.295 3.84801 140.593 4 138 4C110.019 4 89.5323 13.2477 65 15z"/>
<path stroke="none" fill="#002b00" d="M162.086 8.96991C159.838 11.2179 165.324 12.6208 166.914 11.0301C169.162 8.78209 163.676 7.37914 162.086 8.96991z"/>
<path stroke="none" fill="#2e4326" d="M68 17L68 16L67 16L66 16C21.666 53.2983 8.17179 106.118 21 160L22 160L23 160C22.988 141.912 12.4454 125.727 15.1481 109.019C20.9109 73.3937 53.8258 24.5394 91.0586 14.3179C121.685 5.91019 149.865 17.9445 177 23L177 22C156.972 1.97249 79.7156 11.6331 68 17z"/>
<path stroke="none" fill="#253822" d="M152 12L152 13L153 13C180.529 13.5682 209.193 54.7426 224.026 73.2785C228.126 78.4019 224.344 103.388 230.91 102.793C243.408 101.661 226.7 62.756 223.456 57.5841C206.539 30.6115 184.161 12 152 12z"/>
<path stroke="none" fill="#465a31" d="M102 13L102 14L103 14C117.348 14 136.262 10.7663 149.996 15.0193C160.483 18.2668 173.007 30.6728 183 31L183 30L183 29C174.363 27.6238 164.934 16.9114 156.853 14.3033C140.892 9.1521 118.648 13 102 13z"/>
<path stroke="none" fill="#5b6e45" d="M149 15L150 15L150 14C142.245 14 83.2188 12.9853 87.608 20.3788C85.5974 16.9921 142.353 15 149 15z"/>
<path stroke="none" fill="#879a60" d="M88 22L87 22L87 23C89.1793 22.9923 154.125 13.8569 150.392 20.4012C156 10.5713 93.5673 19.7732 88 22z"/>
<path stroke="none" fill="#223622" d="M63 16C60.0682 24.8345 37.7668 38.1852 30.4282 46.2986C17.6019 60.4791 7.52179 89.2299 5.18519 108C-6.42755 201.286 100.799 248.208 174 209L175 209L175 208L174 208C144.846 209.854 116.46 222.875 84.0586 214.941C42.9465 204.874 0.983513 139.758 15.277 98.1474C19.3216 86.3728 22.7141 66.1214 31.8735 56.159C41.1393 46.0807 62.9575 30.2099 64 17z"/>
<path stroke="none" fill="#b7cb7e" d="M174 32L175 32L175 31C162.535 30.0498 108.044 -1.40335 96.1759 20.3341C103.713 6.5287 160.738 31.7263 174 32z"/>
<path stroke="none" fill="#617641" d="M166 23L167 23L167 22C150.475 21.5093 146.759 23 166 23z"/>
<path stroke="none" fill="#d6e8a2" d="M96 23L95 23L95 24L96 24C120.395 24 139.55 27.1249 162 32.5903C165.471 33.4352 184.427 39.6721 179.863 46.3619C174.87 53.6815 160.957 39.2641 156.812 38.2785C123.428 30.3418 119 46.7714 119 75L119 76L120 76C121.92 69.3333 125.769 47.2015 129.028 42.3179C147.115 15.2129 196.842 86.6453 205.4 79.9676C220.006 68.5716 195.945 51.9273 191.031 45.8711C168.057 17.5599 126.808 22.001 96 23z"/>
<path stroke="none" fill="#6a7f4b" d="M86 23L87 23L87 22C76.6102 22.0069 46.8456 44.7885 50.2593 45.6234C57.5141 47.3979 75.105 23.3548 86 23z"/>
<path stroke="none" fill="#a0b378" d="M63 38L63 39L64 39L64 38C69.2559 31.6173 85.7249 24.1708 94 24L95 24L95 23C85.0159 23 65.5965 26.4815 63 38z"/>
<path stroke="none" fill="#82955b" d="M159 23L159 24L160 24L166 24L167 24L167 23L166 23z"/>
<path stroke="none" fill="#dcebaf" d="M87.0008 24.4437C67.7439 27.8287 115.956 22.8161 122.941 25.7423C134.09 30.4125 115.151 34.8373 120.694 38.3966C121.584 38.9681 179.887 47.0989 179.393 47.3573C188.669 42.5063 162.291 32.4032 160 31.8843C136.928 26.657 112.361 19.9858 87.0008 24.4437z"/>
<path stroke="none" fill="#738a4e" d="M190 39L191 39L191 38C183.112 37.3906 177.627 23.1037 170.133 24.1674C162.754 25.2148 185.485 38.8518 190 39z"/>
<path stroke="none" fill="#e8f1cb" d="M80 31L79 31L79 32L80 32C85.6514 31.9963 97.4066 25.7416 101.683 27.6227C107.887 30.352 57.0288 77.8121 63 44L63 43C39.1883 67.5142 72.2344 74.1167 92.581 61.4506C98.7148 57.6322 92.3457 45.8297 100.144 41.4745C104.353 39.1238 127.863 29.1524 125.377 26.723C114.379 15.9735 90.2893 30.8781 80 31z"/>
<path stroke="none" fill="#eff7dc" d="M96.2855 27.8835C90.328 30.293 76.8878 29.6843 72.6026 33.0278C60.9333 42.1329 53.1834 64.2153 77.74 54.4151C86.0562 51.0962 112.175 21.4568 96.2855 27.8835z"/>
<path stroke="none" fill="#475b2f" d="M60.6327 30.7222C57.347 30.5621 52.1837 36.8453 56.338 37.0478C59.1956 37.1871 64.193 30.8958 60.6327 30.7222z"/>
<path stroke="none" fill="#e4f0c2" d="M49 59L48 59C43.4143 74.3568 81.819 81.6811 93.9769 69.9738C102.152 62.1018 98.4032 48.866 104.603 42.6026C107.193 39.9871 123.577 33.1124 127 33L127 32L127 31C95.6538 31.2595 101.897 63.334 74 63.0039C66.2955 62.9127 52.7123 67.7476 49 59z"/>
<path stroke="none" fill="#4d6236" d="M183 31C189.284 52.2065 216.564 62.9727 223.137 86.0193C226.891 99.1811 228.416 136.243 222.397 148.687C217.152 159.532 200.886 179.383 200 191L200 192L201 192L201 191C225.916 148.594 249.466 57.0764 183 31z"/>
<path stroke="none" fill="#96ad66" d="M175 32L175 33L176 33C182.14 37.4838 197.43 47.6868 198 55L199 55L200 55C199.966 45.3057 184.622 33.9068 175 32z"/>
<path stroke="none" fill="#dae8b6" d="M67.1543 34.0864C65.0756 35.2072 54.8421 47.8226 59.8858 46.1096C64.7613 44.4536 73.5009 30.6647 67.1543 34.0864z"/>
<path stroke="none" fill="#8ca268" d="M49 46L48 46L48 47L49 47L62 40L63 40L63 39z"/>
<path stroke="none" fill="#deebb1" d="M117 40L118 40L118 39C94.0067 39.6939 110.302 64.6954 91.8519 70.6967C82.8953 73.61 53.0113 74.8738 45.3225 69.6065C41.7379 67.1508 57.3758 47.9318 52.1651 49.7516C47.4729 51.3903 35.6912 74.3597 42.6034 78.3966C50.3823 82.9397 93.4008 83.6104 101.487 79.3966C116 71.8335 105.771 43.4087 117 40z"/>
<path stroke="none" fill="#d8e8a8" d="M55 49L55 48L55 47C43.4088 47.1374 32.9811 73.7215 42.0502 83.3418C44.0989 85.515 54.189 80.2059 57.9066 80.5641C71.6987 81.8929 83.2504 92.5688 100.772 86.6967C124.294 78.8136 111.832 44.5902 126 40L127 40L127 39C98.3972 39.0189 123.526 72.8613 99.8665 79.6821C90.7269 82.317 49.8984 83.75 42.6034 77.9722C35.3978 72.2653 49.3407 50.7166 55 49z"/>
<path stroke="none" fill="#c2d298" d="M56 46L56 47L57 47L57 46L62 41L63 41L63 40C57.9327 40.0605 56.1776 40.7035 56 46z"/>
<path stroke="none" fill="#c9df84" d="M111 77L111 78C116.926 80.5168 127.271 92.325 133.845 91.5386C138.87 90.9375 158.112 44.6189 158.377 45.7014C156.659 38.6951 134.5 37.1497 129.603 41.0278C117.831 50.3517 134.078 70.0918 111 77z"/>
<path stroke="none" fill="#738a4d" d="M192 40L192 41C192.34 45.3647 193.635 46.6599 198 47L199 47L199 46L198 46L193 41z"/>
<path stroke="none" fill="#809852" d="M46 47C39.776 60.416 31 62.1992 31 78L31 79L32 79L32 78L48 47z"/>
<path stroke="none" fill="#c2dc75" d="M127 87C129.807 98.1936 140.179 101.207 148.352 94.0309C155.719 87.5628 145.68 51.4285 155.148 49.4074C178.644 44.3919 195.395 87.4038 201.225 100.683C202.653 103.936 210.695 105.091 213.397 102.971C217.192 99.9944 216.332 76.4528 212.977 73.0139C208.199 68.1164 206.053 83.8636 196.109 78.4506C182.781 71.1955 174.624 40.8546 152.318 48.3179C135.909 53.8081 155.677 96.2687 127 87z"/>
<path stroke="none" fill="#bbd865" d="M139 100C169.428 119.097 156.643 70.4366 171.148 65.7731C188.407 60.2242 196.764 124.461 218.397 108.566C221.599 106.213 220.498 97.6944 217.285 95.7562C216.326 95.1772 209.562 110.63 202.013 101.4C197.523 95.9113 201.531 87.0582 198.397 81.6026C194.499 74.8179 163.043 44.272 153.603 49.6073C140.057 57.2637 162.807 92.3055 139 100z"/>
<path stroke="none" fill="#aec47b" d="M32 79L33 79L33 78L46 56L47 56L47 55C39.5389 55.243 32.0252 71.8897 32 79z"/>
<path stroke="none" fill="#7b9149" d="M200 55L200 56L201 56C207.041 56.9634 214.854 71.985 215 78L215 79L216 79L216 78C216 67.7576 211.858 55.042 200 55z"/>
<path stroke="none" fill="#94ab5b" d="M207 63L207 64L214 78L214 79L215 79L215 78C214.937 71.0053 211.42 68.0285 207 63z"/>
<path stroke="none" fill="#bad763" d="M138 96L137 96L136 96C136.285 119.817 203.996 132.603 221.397 118.821C231.976 110.442 216.262 88.0537 216 80L216 79L215 79C215 87.7521 216.52 91.5084 219.412 99.1289C223.222 109.168 211.737 112.525 205.001 107.177C194.637 98.9496 188.866 69.2221 176.941 65.9784C172.145 64.6736 148.244 129.875 138 96z"/>
<path stroke="none" fill="#d5e79f" d="M39 71L39 72C29.0954 91.5732 72.5493 105.35 91.9606 100.942C100.743 98.9478 113.891 93.3091 107.416 81.6227C107.883 82.4664 93.9384 87.7882 90 87.9606C74.8084 88.6259 40.108 84.8771 40 72z"/>
<path stroke="none" fill="#324b27" d="M217 167L217 168L218 168C218.75 145.158 231.356 123.653 227.148 98.9414C226.158 93.1273 230.476 73.1935 221.911 71.3766C218.331 70.6169 217.18 74.9574 219.028 77.402C238.689 103.41 217.296 140.207 217 167z"/>
<path stroke="none" fill="#cae088" d="M110 79L109 79C96.6834 108.352 67.9843 101.957 41.8835 91.5116C33.0729 87.9854 35.9445 72.4992 34.9537 73.6227C30.7702 78.3664 29.5515 96.4259 34.8789 100.682C60.0497 120.792 110 113.508 110 79z"/>
<path stroke="none" fill="#526a36" d="M22 79L22 80L15.0046 121.995L22 150L22 151L23 151L23 150L23 80z"/>
<path stroke="none" fill="#8ea754" d="M23 118L23 119L24 119C24 114.039 28.2068 79.2401 28.9684 80.0285C22.5437 73.3774 23 113.351 23 118z"/>
<path stroke="none" fill="#94c54f" d="M30 79L30 80C28.4778 89.7562 14.5439 116.89 28.6026 126.486C37.3848 132.481 111.461 130.696 110.102 121.353C109.658 118.302 94.0061 120 91 120C76.7505 120 40.1567 125.787 28.419 117.972C16.8413 110.264 30.9929 89.1337 31 80z"/>
<path stroke="none" fill="#c5de7c" d="M31 79L31 80C31 106.324 45.846 117 73 117C83.4629 117 110.795 122.549 107.853 106.149C107.407 103.666 87.0341 109 82 109C58.2937 108.998 32 105.149 32 80z"/>
<path stroke="none" fill="#c2db75" d="M110 79C110 85.9539 111.842 110.463 106.397 114.987C90.535 128.165 46.7409 113.069 33.3032 102.992C29.4702 100.117 33.2572 92.2764 30.0301 90.3457C27.8978 89.0699 25.7939 95.0181 25.4599 96.2855C17.8616 125.119 92.0887 132.529 109.397 118.821C114.972 114.405 111 87.0745 111 80L112 80L112 79z"/>
<path stroke="none" fill="#89926c" d="M111 118L111 119L112 119L112 118L115.17 81.9213L126 88L127 88L127 87C120.66 86.5164 120.555 78.7725 115.039 79.2068C107.6 79.7925 111 111.738 111 118z"/>
<path stroke="none" fill="#77a247" d="M207 174L207 175L208 175C209.669 153.12 224 132.136 224 105C224 98.957 226.539 84.1976 219.911 80.9213C216.16 79.0669 215.41 82.8766 216.6 85.7917C230.914 120.856 207 141.777 207 174z"/>
<path stroke="none" fill="#504f4f" d="M112 126L112 127L113 127L113 126C113.274 116.612 134.283 103.695 134 102L134 103L135 103C134.98 97.3538 117.32 78.7355 114.008 82.0471C108.846 87.2091 112 118.23 112 126z"/>
<path stroke="none" fill="#223322" d="M233 91L233 92C233.962 138.614 218.614 195.564 170 210L169 210L169 211L170 211C234.392 208.235 235 138.496 235 91z"/>
<path stroke="none" fill="#5f8c3c" d="M22 95L22 96C22 120.175 20.2905 146.232 31.6026 166.412C33.0768 169.042 49.7635 196.141 53.3781 189.411C56.7306 183.169 34.7409 169.043 32.6034 164.682C22.7871 144.654 23 118.918 23 96z"/>
<path stroke="none" fill="#6c7846" d="M135 96L135 97C135.068 102.713 136.287 103.932 142 104L143 104L143 103L142 103C137.635 102.66 136.34 101.365 136 97z"/>
<path stroke="none" fill="#434141" d="M150 112L149 112L148 112L148 113C151.703 118.496 141.155 121.724 137.742 118.382C132.112 112.868 138.904 99.8376 142 110L142 111L143 111C142.949 106.739 131.595 94.0862 128.027 98.6042C124.236 103.404 130.233 113.078 125.4 117.338C120.934 121.276 118.927 110.306 115.965 113.086C111.432 117.34 108.681 145.625 113.027 149.971C112.027 148.972 152.63 118.277 150 112z"/>
<path stroke="none" fill="#6d7b41" d="M143 104L143 105L151 118L151 119L152 119L152 118L144 105z"/>
<path stroke="none" fill="#2d2d2b" d="M136.603 106.047C129.855 111.178 139.645 125.13 148.392 117.84C152.172 114.688 139.325 103.977 136.603 106.047z"/>
<path stroke="none" fill="#002b00" d="M240 110L240 111L240 125L240 126L241 126L241 125L241 111z"/>
<path stroke="none" fill="#90c148" d="M152 112C151.894 117.302 144.705 133.649 145.029 133.973C154.007 142.951 198.784 124.076 199 142L199 143L200 143L200 142C200.724 132.514 214.881 132.087 215 142L215 143L216 143L216 142L223 119C210.676 121.288 154.162 125.672 154 112z"/>
<path stroke="none" fill="#8fc14d" d="M24 119C24 135.476 26.8022 144.418 33 159L34 159L35 159C25.4523 119.356 62.9866 175.916 70 176L71 176L71 175L70 175C62.7713 172.4 40.1632 142.804 50.3179 136.028C58.6305 130.481 85.7157 136 96 136C99.3248 136 113.531 136.509 108.393 128.773C106.07 125.276 87.1824 129 83 129C61.2057 129 39.6755 130.29 24 119z"/>
<path stroke="none" fill="#6e9940" d="M111 119L111 120C107.44 128.483 106.651 151.865 118 152L119 152L119 151L118 151C106.361 150.093 114.363 127.014 111 119z"/>
<path stroke="none" fill="#a8cf79" d="M144.603 121.029C142.474 122.691 133.575 139.35 142.402 134.392C148.222 131.123 153.51 114.078 144.603 121.029z"/>
<path stroke="none" fill="#55584b" d="M142 124C133.39 130.559 119.046 137.099 119 150L119 151L120 151L120 150C120.273 141.686 135.492 129.28 143 126L143 125z"/>
<path stroke="none" fill="#78b645" d="M109 127L109 128C109 153.375 49.0489 145.307 49 145L49 144L48 144L48 145C48.8904 172.116 67.5351 158 83 158C88.2762 158 106.086 160.952 109.972 157.802C113.365 155.053 110 132.913 110 128z"/>
<path stroke="none" fill="#84bc45" d="M113 160L112 160L112 161L113 161C122.93 160.882 123.518 149.59 131.317 145.588C141.823 140.197 202.406 139.009 188 158L188 159L189 159L190 159C192.488 153.143 202.687 143.719 198.397 136.684C197.787 135.684 124.702 130.426 143 129L143 128L143 127C126.833 127.193 122.856 159.232 113 160z"/>
<path stroke="none" fill="#6f7f5c" d="M135 128L135 129L129 135L128 135L128 136L129 136C134.31 135.826 135.826 134.31 136 129z"/>
<path stroke="none" fill="#83bd45" d="M107.821 135.313C96.2121 132.541 62.5888 131.921 51.1481 135.318C45.9001 136.876 47.4977 149.227 52.0895 150.793C50.8629 150.375 100.14 145.378 105.852 143.682C108.213 142.981 111.08 136.092 107.821 135.313z"/>
<path stroke="none" fill="#95c668" d="M191 166L191 167L192 167C192.249 163.723 199.989 153.752 203.71 156.191C212.881 162.205 194.488 170.563 200.642 174.396C206.098 177.794 216.921 145.07 214.721 137.368C210.066 121.066 191 158.643 191 166z"/>
<path stroke="none" fill="#a4ce78" d="M130.028 138.028C127.521 140.534 131.466 144.479 133.972 141.972C136.479 139.466 132.534 135.521 130.028 138.028z"/>
<path stroke="none" fill="#5d8839" d="M222 142L215 158L215 159L216 159L216 158C217.107 150.912 225.458 150.242 222 142z"/>
<path stroke="none" fill="#92c66e" d="M46 175L47 175C38.5533 159.533 53.3684 160.775 52.7924 157.941C45.8796 123.93 20.1411 161.91 46 175z"/>
<path stroke="none" fill="#9ecb78" d="M122.585 145.136C119.668 147.05 122.032 152.242 125.415 150.378C128.431 148.717 125.679 143.105 122.585 145.136z"/>
<path stroke="none" fill="#77b645" d="M136.001 144.425C132.93 144.852 118.171 154.774 122.032 157.691C128.387 162.493 178.773 161.065 186.852 158.562C190.64 157.389 192.992 145.763 188.682 144.318C175.742 139.979 149.525 142.543 136.001 144.425z"/>
<path stroke="none" fill="#496d31" d="M30 166L30 167L31 167C30.9491 148.564 28.8475 151.208 30 166z"/>
<path stroke="none" fill="#97bd7a" d="M112.028 153.028C108.336 156.72 114.28 162.664 117.972 158.972C121.664 155.28 115.72 149.336 112.028 153.028z"/>
<path stroke="none" fill="#9dcc80" d="M175 183L176 183L177 183C177.949 179.729 193.619 162.635 196.578 170.328C199.214 177.181 180.92 194.71 176 198C193.638 205.39 206.775 155.423 203.231 155.191C197.479 154.815 193.471 164.451 189.684 166.401C184.375 169.135 175.611 176.341 175 183z"/>
<path stroke="none" fill="#6fb345" d="M71 172C76.2528 159.619 142.292 167 157 167C162.273 167 178.565 170.249 181.681 165.567C188.494 155.332 164.498 158 160 158L88 158C83.7596 158 66.9532 155.572 64.3133 159.028C60.0666 164.586 68.6545 168.719 71 172z"/>
<path stroke="none" fill="#7faf6d" d="M33.0278 160.028C29.7302 163.325 71.1597 212.783 77.9676 205.975C74.7916 209.151 33.7045 159.351 33.0278 160.028z"/>
<path stroke="none" fill="#a6d092" d="M94 207L95 207L95 206L94 206C88.0725 205.829 60.4267 187.918 67.3364 185.809C76.3477 183.058 91.2234 197.89 99.0579 200.022C118.2 205.23 134.216 197.704 151 194L151 193C142.336 189.373 126.23 199.685 115 198.91C104.772 198.205 79.5924 191.003 71.723 183.401C65.1345 177.036 55.3232 154.423 43.3179 159.643C37.0334 162.375 47.6686 178.327 50.0224 181.417C60.4935 195.16 76.6267 207 94 207z"/>
<path stroke="none" fill="#7ebb62" d="M183.988 160.028C180.351 163.321 162.366 188.296 173.438 182.396C182.221 177.715 191.631 153.107 183.988 160.028z"/>
<path stroke="none" fill="#69b045" d="M150 189L151 189L151 188L150 188C134.962 188 113.449 193.547 99.1474 187.853C96.7835 186.911 83.146 178.467 84.7515 176.984C94.0975 168.352 175.754 176.985 155 182L154 182L154 183C158.582 183 182.795 173.097 178.953 168.995C174.736 164.492 159.625 167 154 167C131.625 167 94.2496 159.64 73.4074 167.318C66.033 170.035 91.0287 187.352 94.6335 188.941C110.299 195.847 133.588 189.339 150 189z"/>
<path stroke="none" fill="#3a5e2d" d="M33.0239 169.071C30.299 171.544 34.0506 176.924 36.9722 173.971C39.316 171.603 35.6678 166.671 33.0239 169.071z"/>
<path stroke="none" fill="#71b452" d="M167 185L167 184C141.131 173.145 105.565 208.134 78.9915 176.598C77.4792 174.803 66.1498 166.178 64.7114 169.589C61.6402 176.871 81.0372 183.653 84.7261 186.005C116.052 205.977 135.317 193.989 167 185z"/>
<path stroke="none" fill="#aed19f" d="M96 200L96 201L96 202L96 203C111.75 203 131.669 206.26 146.895 202.022C154.544 199.892 160.496 187.763 171.623 192.692C175.222 194.286 155.414 205.618 152 206L151 206L151 207C164.56 206.963 179.524 198.271 188.102 187.541C190.316 184.772 200.645 169.665 194.848 168.407C187.771 166.873 164.812 186.726 157.742 190.974C137.991 202.841 118.534 200.465 96 200z"/>
<path stroke="none" fill="#4b7d3a" d="M209 168C204.667 181.053 175.156 192.979 175 206L175 207L176 207L176 206C178.431 197.992 186.275 203.338 190.992 198.973C201.122 189.598 205.054 181.147 211 169L211 168z"/>
<path stroke="none" fill="#92c67d" d="M63 176L63 177L64 177C75.4628 180.323 79.4046 191.879 94 192L95 192L95 191L94 191z"/>
<path stroke="none" fill="#65ae45" d="M84.0864 176.984C82.3133 178.871 98.2961 188.06 101.019 188.556C116.059 191.298 153.897 192.776 163.914 179.456C159.672 185.096 94.9767 165.395 84.0864 176.984z"/>
<path stroke="none" fill="#406835" d="M47 185L47 186C47.4214 198.567 66.5703 207.905 78 208L79 208L79 207L78 207C69.8092 206.375 49.3643 194.175 48 186z"/>
<path stroke="none" fill="#afd0a1" d="M66.0463 186.029C60.6526 191.219 83.3376 204.131 87.0193 205.272C105.565 211.015 160.396 216.568 172.914 195.745C176.226 190.237 157.63 193.317 155.133 194.228C140.985 199.393 116.367 210.997 98.3032 202.397C94.1905 200.438 73.3553 178.995 66.0463 186.029z"/>
<path stroke="none" fill="#598947" d="M57.0278 193.171C53.7094 195.557 58.9088 201.602 61.9537 198.897C64.4137 196.711 59.4673 191.418 57.0278 193.171z"/>
<path stroke="none" fill="#84b671" d="M160 206L159 206L159 207L160 207L175 201L175 200z"/>
<path stroke="none" fill="#6da258" d="M171.897 201.89C167.476 203.145 167.593 208.297 172.688 206.677C175.539 205.771 175.259 200.934 171.897 201.89z"/>
<path stroke="none" fill="#749864" d="M79 207L79 208L80 208L86 208L87 208L87 207L86 207z"/>
<path stroke="none" fill="#9aba8c" d="M87 207L87 208L88 208L158 208L159 208L159 207L158 207z"/>
<path stroke="none" fill="#608a4d" d="M144 214L143 214L143 215L144 215L166 208L167 208L167 207z"/>
<path stroke="none" fill="#496c3b" d="M113 216L112 216L112 217L113 217L174 208L175 208L175 207z"/>
<path stroke="none" fill="#4e733f" d="M79 208L79 209L80 209C89.1097 213.189 91.0625 216 102 216L103 216L103 215L102 215z"/>
<path stroke="none" fill="#7e9d71" d="M87 208L87 209L88 209C104.968 212.08 118.793 215.213 137 214.996C139.218 214.97 154.819 214.675 151.512 209.038C149.411 205.455 139.71 213.705 136.999 213.941C118.872 215.522 103.672 208.048 87 208z"/>
<path stroke="none" fill="#0f1a0f" d="M191 209L192 209L192 208C158.434 208.37 128.532 236.262 93.4552 218.595C90.3296 217.021 78.3794 215.038 80.3372 221.701C81.3529 225.158 101.715 226.006 105.981 227.094C144.163 236.83 157.513 214.229 191 209z"/>
<path stroke="none" fill="#395e2b" d="M80.3179 210.208C77.7852 212.729 83.5061 216.507 85.9144 214.026C88.1287 211.745 81.9394 208.594 80.3179 210.208z"/>
<path stroke="none" fill="#689257" d="M102 215L103 215L103 214C87.5095 212.867 85.2634 214.998 102 215z"/>
<path stroke="none" fill="#65845b" d="M103 215L103 216L104 216L142 216L143 216L143 215L142 215z"/>
</svg>
